<?xml version="1.0" encoding="UTF-8" standalone="no"?>
<!-- Created with Inkscape (http://www.inkscape.org/) -->

<svg
   xmlns:dc="http://purl.org/dc/elements/1.1/"
   xmlns:cc="http://creativecommons.org/ns#"
   xmlns:rdf="http://www.w3.org/1999/02/22-rdf-syntax-ns#"
   xmlns:svg="http://www.w3.org/2000/svg"
   xmlns="http://www.w3.org/2000/svg"
   xmlns:sodipodi="http://sodipodi.sourceforge.net/DTD/sodipodi-0.dtd"
   xmlns:inkscape="http://www.inkscape.org/namespaces/inkscape"
   width="300mm"
   height="300mm"
   viewBox="0 0 300 300"
   version="1.1"
   id="svg8"
   inkscape:version="0.92.4 (5da689c313, 2019-01-14)"
   sodipodi:docname="logo.svg"
   inkscape:export-filename="C:\Users\Sar Quentin\Desktop\Projets\My Eco Idea\logo.png"
   inkscape:export-xdpi="96"
   inkscape:export-ydpi="96">
  <defs
     id="defs2" />
  <sodipodi:namedview
     id="base"
     pagecolor="#ffffff"
     bordercolor="#666666"
     borderopacity="1.0"
     inkscape:pageopacity="0.0"
     inkscape:pageshadow="2"
     inkscape:zoom="0.43719246"
     inkscape:cx="-198.29499"
     inkscape:cy="671.39383"
     inkscape:document-units="mm"
     inkscape:current-layer="layer1"
     showgrid="false"
     inkscape:window-width="1920"
     inkscape:window-height="986"
     inkscape:window-x="-11"
     inkscape:window-y="-11"
     inkscape:window-maximized="1" />
  <metadata
     id="metadata5">
    <rdf:RDF>
      <cc:Work
         rdf:about="">
        <dc:format>image/svg+xml</dc:format>
        <dc:type
           rdf:resource="http://purl.org/dc/dcmitype/StillImage" />
        <dc:title></dc:title>
      </cc:Work>
    </rdf:RDF>
  </metadata>
  <g
     inkscape:label="Calque 1"
     inkscape:groupmode="layer"
     id="layer1"
     transform="translate(0,3)">
    <g
       transform="matrix(5.206622,0,0,4.9262897,-14.140924,-10.018308)"
       id="g3908">
      <path
         style="fill:#616466"
         inkscape:connector-curvature="0"
         d="m 28,58 c 0,2.2 1.8,4 4,4 2.2,0 4,-1.8 4,-4 h -8"
         id="path3884" />
      <g
         style="fill:#94989b"
         id="g3894">
        <path
           inkscape:connector-curvature="0"
           d="m 24.9,50 h 14.3 v 1.8 H 24.9 Z"
           id="path3890" />
        <path
           inkscape:connector-curvature="0"
           d="m 25.9,53.6 h 12.3 v 1.8 H 25.9 Z"
           id="path3892" />
      </g>
      <path
         style="fill:#616466"
         inkscape:connector-curvature="0"
         d="m 25.9,51.8 h 12.3 v 1.8 H 25.9 Z"
         id="path3896" />
      <g
         style="fill:#94989b"
         id="g3902">
        <path
           inkscape:connector-curvature="0"
           d="m 39.2,50 -13.3,3.6 v 1.9 l 13.3,-3.7 z"
           id="path3898" />
        <path
           inkscape:connector-curvature="0"
           d="m 26.9,57.3 h 10.3 v 1.8 H 26.9 Z"
           id="path3900" />
      </g>
      <path
         style="fill:#616466"
         inkscape:connector-curvature="0"
         d="m 26.9,55.5 h 10.3 v 1.8 H 26.9 Z"
         id="path3904" />
      <path
         style="fill:#94989b"
         inkscape:connector-curvature="0"
         d="m 38.2,53.6 -11.3,3.7 v 1.9 l 11.3,-3.7 z"
         id="path3906" />
    </g>
    <path
       style="fill:#35bf54;fill-opacity:0;stroke:none;stroke-width:0.53453904"
       d="m 147.79941,225.25172 c 10.33008,-1.86931 19.25946,-7.08052 25.66912,-14.98056 9.8527,-12.14367 14.98434,-29.93061 14.98434,-51.93767 0,-26.14678 -7.91434,-51.70967 -19.35013,-62.499837 -3.6824,-3.474511 -6.76541,-5.050177 -10.54536,-5.389523 -3.80208,-0.341342 -6.73597,0.463717 -10.21014,2.801667 -1.52071,1.023361 -2.98456,1.860651 -3.25301,1.860651 -0.26845,0 -3.55174,-1.349759 -7.2962,-2.999465 C 110.05114,79.882455 93.478354,63.902059 88.966436,45.020861 86.91636,36.441828 88.371608,22.211128 91.840353,16.917153 92.75723,15.517822 101.35961,11.106112 109.29492,7.9656221 124.64469,1.890774 144.9703,-1.0039575 161.99319,0.46044181 190.24467,2.8907839 214.67913,13.711408 232.56788,31.713941 c 11.55764,11.631152 19.56442,26.281541 22.45544,41.08777 3.07783,15.762996 0.51891,30.886339 -8.27174,48.886389 -4.91886,10.07206 -9.7074,17.90297 -24.60379,40.23573 -6.9616,10.43688 -14.52922,22.07245 -16.81692,25.85682 -7.60129,12.57425 -13.5063,25.60518 -15.64924,34.53409 l -0.90091,3.75378 -22.48092,-0.0483 c -20.5534,-0.0441 -22.13964,-0.11001 -18.50039,-0.76856 z M 200.15354,93.73788 c 4.29707,-3.61574 1.64779,-10.391291 -4.06306,-10.391291 -1.90202,0 -2.67989,0.305435 -3.90958,1.535126 -0.84432,0.844317 -1.69379,2.1673 -1.88771,2.939965 -0.51019,2.032762 0.13452,3.996455 1.88771,5.749642 2.08974,2.089738 5.59992,2.163072 7.97264,0.166558 z m -19.34548,-6.917449 c 2.27069,-1.590453 1.83457,-6.45913 -0.66449,-7.41811 -2.48548,-0.953767 -4.81874,-0.199697 -5.90965,1.909903 -1.60403,3.101851 0.32586,6.310678 3.79544,6.310678 0.89816,0 2.14857,-0.361114 2.7787,-0.802471 z m -28.9175,-16.177329 c 2.71303,-1.811536 1.35351,-6.550776 -1.87371,-6.531734 -1.68627,0.0099 -2.3745,0.434671 -3.178,1.961198 -0.88158,1.674865 -0.76327,2.692754 0.45452,3.910546 1.06337,1.063377 3.47463,1.409544 4.59719,0.65999 z m -25.8196,-12.607493 c 0.95064,-0.397203 2.49458,-1.594776 3.43097,-2.661267 3.99038,-4.544792 2.6087,-12.356398 -2.68231,-15.164958 -2.77542,-1.47324 -7.24851,-1.239624 -9.90328,0.51722 -6.32624,4.186508 -5.65048,13.905527 1.1826,17.008552 2.60989,1.185201 5.58606,1.297368 7.97202,0.300453 z m 61.43128,-5.130842 c 5.0939,-3.490386 6.26447,-10.957613 2.47329,-15.777319 -2.73549,-3.477617 -8.86012,-4.68046 -13.02049,-2.557155 -4.10167,2.093346 -5.81653,5.219509 -5.50937,10.043488 0.26519,4.164655 2.04135,7.076678 5.33729,8.750482 3.12426,1.586619 8.04075,1.375865 10.71928,-0.459496 z"
       id="path4907"
       inkscape:connector-curvature="0" />
    <path
       style="fill:#35bf54;fill-opacity:0.87843137;stroke:none;stroke-width:0.53459084"
       d="m 148.74916,224.77918 c 20.37017,-3.68204 33.94771,-19.86525 38.97968,-46.46025 1.0587,-5.59545 1.21557,-8.15487 1.22859,-20.04521 0.0118,-10.71715 -0.1928,-14.88759 -0.9569,-19.51068 -2.07,-12.52425 -5.07794,-22.57479 -9.1987,-30.73599 -2.96004,-5.86238 -4.77822,-8.511365 -8.32928,-12.135274 -6.72452,-6.86248 -14.82361,-7.87065 -21.92291,-2.72894 -2.76758,2.00444 -2.44241,2.08888 -14.64546,-3.80321 -14.08815,-6.8023 -22.25169,-12.38902 -30.22571,-20.68497 -10.217145,-10.62965 -14.925335,-21.39168 -14.938545,-34.14673 -0.006,-5.67184 1.1733,-11.86156 3.12717,-16.415019 0.93295,-2.174252 1.53893,-2.753479 4.45,-4.253567 C 108.92164,7.3641516 119.96228,3.5470036 132.28751,1.4230706 c 39.47144,-6.801879 80.66797,6.406823 104.63375,33.5483554 9.71394,11.00117 16.01642,23.36784 18.97953,37.2415 0.72811,3.40913 0.96518,6.81249 0.94945,13.63075 -0.0185,8.0028 -0.18931,9.75691 -1.43169,14.699824 -1.82238,7.25044 -4.45646,14.08527 -8.64464,22.43086 -4.92306,9.80993 -8.8988,16.25357 -23.46125,38.02449 -21.70112,32.44325 -28.94756,45.81797 -32.56674,60.1082 l -1.14439,4.51859 -22.50225,-0.0479 c -21.01687,-0.0448 -22.22816,-0.0975 -18.35012,-0.79849 z M 201.12705,93.103796 c 1.54479,-1.38001 1.74602,-1.8779 1.74602,-4.32016 0,-2.44225 -0.20123,-2.94015 -1.74602,-4.32016 -3.34439,-2.98763 -8.3724,-1.72045 -9.75155,2.45764 -1.94056,5.87879 5.09698,10.34073 9.75155,6.18268 z m -18.82823,-7.39359 c 2.27056,-2.88598 0.23539,-7.10274 -3.41023,-7.06581 -3.34367,0.0339 -5.38556,3.36467 -3.86495,6.30463 0.96068,1.85737 1.48064,2.13144 4.15269,2.18879 1.53655,0.033 2.21875,-0.27892 3.12249,-1.42761 z m -29.27896,-15.76907 c 2.45845,-1.87757 0.86392,-6.28083 -2.27444,-6.28083 -2.02544,0 -3.93647,2.33821 -3.47613,4.25318 0.41221,1.71473 1.67727,2.69582 3.47613,2.69582 0.76976,0 1.79326,-0.30067 2.27444,-0.66817 z m -26.50182,-12.19477 c 1.84379,-0.69649 4.28261,-2.94585 5.29531,-4.88393 0.95895,-1.83524 0.97204,-6.35506 0.025,-8.6213 -1.65036,-3.94908 -6.57506,-6.28036 -10.94364,-5.18056 -3.28623,0.82732 -5.13281,2.25514 -6.45906,4.99428 -1.77789,3.67192 -1.1856,8.28074 1.44477,11.24239 2.22445,2.50459 7.36051,3.68707 10.63766,2.44912 z m 60.9842,-4.8416 c 6.54549,-3.16801 7.45669,-13.31325 1.59708,-17.78173 -4.7421,-3.61627 -11.9678,-2.47857 -15.19157,2.39194 -1.65533,2.50088 -2.23322,6.83901 -1.29119,9.69281 0.72534,2.19738 3.43619,5.11091 5.66295,6.08636 2.46357,1.07918 6.54448,0.90689 9.22273,-0.38938 z"
       id="path4911"
       inkscape:connector-curvature="0" />
    <path
       style="fill:#35bf54;fill-opacity:0.87843137;stroke:none;stroke-width:0.6051873"
       d="m 140.42091,162.70936 c -0.1132,-2.95692 -1.7255,-10.08016 -3.43274,-15.16592 -3.11857,-9.29006 -10.03596,-21.34361 -16.84644,-29.35491 -1.90999,-2.24676 -3.27835,-4.08501 -3.04082,-4.08501 0.23755,0 2.92902,2.02912 5.98106,4.50916 6.31671,5.13285 13.61919,12.56779 16.69107,16.99385 l 2.08706,3.00707 0.16281,8.17003 c 0.1002,5.02816 -0.16234,10.03188 -0.68271,13.01153 -0.46913,2.68629 -0.87836,3.98356 -0.91929,2.9142 z"
       id="path4913"
       inkscape:connector-curvature="0" />
    <path
       style="fill:#a0a0a0;stroke:none;stroke-width:2.28732204"
       d=""
       id="path4917"
       inkscape:connector-curvature="0"
       transform="scale(0.26458333)" />
    <path
       style="fill:#a0a0a0;stroke:none;stroke-width:2.28732204"
       d=""
       id="path4919"
       inkscape:connector-curvature="0"
       transform="scale(0.26458333)" />
    <path
       style="fill:#a0a0a0;stroke:none;stroke-width:2.28732204"
       d=""
       id="path4921"
       inkscape:connector-curvature="0"
       transform="scale(0.26458333)" />
  </g>
  <g
     inkscape:groupmode="layer"
     id="layer2"
     inkscape:label="Calque 2"
     style="display:inline"
     transform="translate(0,3)">
    <g
       id="g4040"
       transform="matrix(-0.41987867,0,0,0.42184463,234.2027,16.703883)">
      <path
         id="path3964"
         d="m 339.772,0 c 0,0 62.35912,114.02259 -128.51388,187.20659 C 110.08828,97.712618 27.882117,527.79963 252.85026,493.86447 260.72726,423.50747 146.826,255.708 292.061,220.309 c 0,0 2.57771,48.0866 -9.36329,276.8876 C 306.95366,387.08033 381.12424,362.63624 429.48924,221.26924 485.71676,86.445259 339.772,0 339.772,0 Z"
         style="fill:#3a7f0d"
         inkscape:connector-curvature="0"
         sodipodi:nodetypes="ccccccc" />
      <path
         id="path3966"
         d="M 282.69771,497.1966 C 269.74565,381.326 416.30504,276.65106 431.11304,112.07806 400.96804,30.764065 339.772,0 339.772,0 c 0,0 62.35912,114.02259 -128.51388,187.20659 -103.716,39.755 -55.50141,342.65802 71.43959,309.99001 7.877,-70.357 -185.521822,-146.45259 9.36329,-276.8876 -0.008,0.001 -149.4867,128.57735 -9.36329,276.8876 z"
         style="fill:#49a010"
         inkscape:connector-curvature="0"
         sodipodi:nodetypes="ccccccc" />
      <circle
         id="circle3968"
         r="13.785"
         cy="171.985"
         cx="90.459"
         style="fill:#3a7f0d" />
      <g
         id="g3978">
        <circle
           id="circle3970"
           r="9.8459997"
           cy="158.2"
           cx="133.782"
           style="fill:#49a010" />
        <circle
           id="circle3972"
           r="24.615"
           cy="64.662003"
           cx="124.921"
           style="fill:#49a010" />
        <circle
           id="circle3974"
           r="7.8769999"
           cy="120.785"
           cx="200.73599"
           style="fill:#49a010" />
        <circle
           id="circle3976"
           r="22.646"
           cy="76.476997"
           cx="266.71301"
           style="fill:#49a010" />
      </g>
      <g
         id="g3980" />
      <g
         id="g3982" />
      <g
         id="g3984" />
      <g
         id="g3986" />
      <g
         id="g3988" />
      <g
         id="g3990" />
      <g
         id="g3992" />
      <g
         id="g3994" />
      <g
         id="g3996" />
      <g
         id="g3998" />
      <g
         id="g4000" />
      <g
         id="g4002" />
      <g
         id="g4004" />
      <g
         id="g4006" />
      <g
         id="g4008" />
    </g>
  </g>
</svg>
